# xmcd
#
# Track frame offsets:
#	150
#	18101
#	35809
#	56623
#	78669
#	95140
#
# Disc length: 1499 seconds
#
# Revision: 1
# Processed by: cddbd v1.5.2PL0 Copyright (c) Steve Scherf et al.
# Submitted via: audiograbber 1.83.01
#
DISCID=4905d906
DTITLE=Taylor Swift - Speak Now (DeLuxe Edition)
DYEAR=2010
DGENRE=Pop
TTITLE0=Ours
TTITLE1=If This Was A Movie
TTITLE2=Superman
TTITLE3=Back To December (Acoustic Version)
TTITLE4=Haunted (Acoustic Version)
TTITLE5=Mine (US Version)
EXTD=
EXTT0=
EXTT1=
EXTT2=
EXTT3=
EXTT4=
EXTT5=
PLAYORDER=
